<?xml version="1.0" encoding="UTF-8"?>
<svg width="112px" height="167px" viewBox="0 0 112 167" version="1.1" xmlns="http://www.w3.org/2000/svg" xmlns:xlink="http://www.w3.org/1999/xlink">
    <!-- Generator: Sketch 61.2 (89653) - https://sketch.com -->
    <title>Group 7</title>
    <desc>Created with Sketch.</desc>
    <defs>
        <linearGradient x1="100%" y1="33.7253738%" x2="31.7787057%" y2="71.0297687%" id="linearGradient-1">
            <stop stop-color="#5C69B9" offset="0%"></stop>
            <stop stop-color="#C9C9C9" stop-opacity="0.0980659965" offset="100%"></stop>
        </linearGradient>
    </defs>
    <g id="Final" stroke="none" stroke-width="1" fill="none" fill-rule="evenodd" opacity="0.300000012">
        <g id="Final_Desktop" transform="translate(-1096.000000, -2198.000000)">
            <g id="Group-7" transform="translate(1145.000000, 2281.500000) scale(-1, 1) rotate(-11.000000) translate(-1145.000000, -2281.500000) translate(1081.000000, 2198.000000)">
                <g id="Rhombus" transform="translate(0.057294, 0.000000)">
                    <polygon id="Path-2" fill="#F99200" points="30.7513253 83.6638212 56.2236066 0.0864162315 113.406242 83.6638212"></polygon>
                    <polygon id="Path-2" fill="#FFBD7C" transform="translate(28.111803, 41.831911) scale(-1, 1) translate(-28.111803, -41.831911) " points="24.1762813 83.577405 4.35875336e-13 0.0864162315 56.2236066 83.577405"></polygon>
                    <polygon id="Path-2" fill="#9DA8E6" transform="translate(72.078784, 124.819119) scale(1, -1) translate(-72.078784, -124.819119) " points="30.7513253 166.607821 56.2236066 83.0304162 113.406242 166.607821"></polygon>
                    <polygon id="Path-2" fill="#5C69B9" transform="translate(28.111803, 124.775911) scale(-1, -1) translate(-28.111803, -124.775911) " points="24.1762813 166.607821 -7.31455523e-13 82.944 56.2236066 166.607821"></polygon>
                </g>
                <g id="Rhombus-Front" transform="translate(0.057294, 0.000000)">
                    <polygon id="Path-2" fill="#D4DBFF" points="30.7513253 83.6638212 56.2236066 0.0864162315 113.406242 83.6638212"></polygon>
                    <polygon id="Path-2" fill="#FFFFFF" transform="translate(28.111803, 41.831911) scale(-1, 1) translate(-28.111803, -41.831911) " points="24.1762813 83.577405 3.38553812e-13 0.0864162315 56.2236066 83.577405"></polygon>
                    <polygon id="Path-2" fill="#9DA8E6" transform="translate(72.078784, 98.106648) scale(1, -1) translate(-72.078784, -98.106648) " points="30.7513253 113.18288 92.2324243 83.0304162 113.406242 113.18288"></polygon>
                    <polygon id="Path-2" fill="#5C69B9" transform="translate(21.136826, 101.088000) scale(-1, -1) translate(-21.136826, -101.088000) " points="10.2263258 119.232 9.20863386e-15 82.944 42.2736511 119.232"></polygon>
                </g>
                <polygon id="Path-3" fill="url(#linearGradient-1)" points="78.4797227 32.5944056 99.7446984 63.7182197 90.6253506 72.3646152 67.8487557 83.376 40.1981786 64.864869"></polygon>
                <g id="Rhombus" transform="translate(97.583460, 39.956092) scale(-1, 1) rotate(-13.000000) translate(-97.583460, -39.956092) translate(74.583460, 6.456092)">
                    <polygon id="Path-2" fill="#9DA8E6" points="12.3005301 33.4655285 22.4894426 0.0345664926 45.362497 33.4655285"></polygon>
                    <polygon id="Path-2" fill="#FFFFFF" transform="translate(11.244721, 16.732764) scale(-1, 1) translate(-11.244721, -16.732764) " points="9.67051251 33.430962 1.74350134e-13 0.0345664926 22.4894426 33.430962"></polygon>
                    <polygon id="Path-2" fill="#5C69B9" transform="translate(28.831514, 49.927647) scale(1, -1) translate(-28.831514, -49.927647) " points="12.3005301 66.6431285 22.4894426 33.2121665 45.362497 66.6431285"></polygon>
                    <polygon id="Path-2" fill="#9DA8E6" transform="translate(11.244721, 49.910364) scale(-1, -1) translate(-11.244721, -49.910364) " points="9.67051251 66.6431285 1.92835239e-14 33.1776 22.4894426 66.6431285"></polygon>
                </g>
            </g>
        </g>
    </g>
</svg>